<svg xmlns="http://www.w3.org/2000/svg" viewBox="0 0 2426.5 1003.2">
    <path
        d="M1220.7 109.2c16.5.8 32.3 7.1 44.8 17.9 17 16.1 21.5 43 13.4 64.5-31.3 64.4-105.8 107.5-156.6 121.7-30.4 7.2-68.9 7.2-96.7-3.6-13.4 8.1-24.8 34.1-41.2 23.3-23.7-18.5-3.2-47.6-16.9-68.2-2.8-4.2-9.9-4.6-13.5-11.5-18.8-41.2 4.5-80.6 30.4-111.9 43.2-48.2 167.3-102 236.3-32.2zm-144.1 32.3c-24.2 4.5-51.5 15-66.2 32.2-14.8 17.2-24.2 34-15.2 51.9 31.3-23.3 46.5-55.5 81.5-75.2-.1-3.6 5.2-6.3-.1-8.9zm145.9 8.9c-61.8-5.4-108.3 41.2-152.2 85.9-2.7 7.2-18.8 15.2-6.3 23.3 59.1 5.4 115.5-11.6 158.5-51 12.5-11.6 21.5-26.8 15.2-43-2.7-6.2-9-12.5-15.2-15.2zm535.2 266.8c28.7 69.8 52.8 179.9 0 247.1-14.3 16.1-39.4 31-55.5 18.8-59.1-47.4-84.1-115.5-120.8-176.3-5.4-2.7-5.4 4.5-8.1 7.2-13.4 61.8 11.6 142.3-30.4 190.7-16.1 2.7-31.2-5.6-36.7-21.5-20.6-63.6.9-129.8 6.2-193.4 12.5-32.2 17.9-69.8 45.7-94 44.8 17.9 66.2 68 92.2 104.7 18.8 27.7 34 59.1 55.5 84.1 18.8-8.1 9.5-32.6 9-47.4-7.2-58.2-23.3-111.9-38.5-167.4-.9-14.3-8.9-38.5 6.3-47.4 40.3 17.8 57.2 59.9 75.1 94.8zm-270.3-21.5c0 13.4-10.7 30.2-19.7 32.2-85.9 13.4-181.7 5.4-262.3 32.2-2.7 9.8 8.9 11.6 15.2 14.3 68.9 10.7 141.4 13.4 208.6 30.4 35.5 9 48.4 51 51 85.9 1.6 27.5-8.9 60.9-35.8 79.7-66.2 42.1-167.4 40.3-234.5 1.8-25.7-14.4-50.1-37.6-51.9-66.2.2-22.7 9.9-40.7 26-49.2 64.5-26 144.1-11.6 199.6 21.5 3.6 17.9-15.8 16.9-25.1 23.3-61.8 35.8-108.3-40.3-165.6-12.5-8.1 5.4-13.9 20.3-4.5 25.1 70.7 31.3 149.5 8.9 219.3-10.7 8.1-2.7 17.9-10.7 18.8-18.8-2.7-28.7-34.9-34.9-55.5-43-60.9-15.2-128-15.2-193.4-21.5-12.5-2.7-28.5-11.4-32.2-21.5-7.2-21.5-7.2-51 8.9-68.9 83.2-73.4 209.4-67.1 315.1-47.4 7.3 2.5 15.3 5.2 18 13.3zm-391.1 34c8.1 85.9 12.5 165.6 10.7 256-1.8 11.6-15.2 14.3-24.2 18.8-14.3 2.7-32.8-.4-38.5-8.1-20.6-33.1-13.4-77.9-15.2-118.2 2.7-63.5 1.8-132.5 19.7-191.6 3.4-8.6 13.4-16.1 21.5-10.8 21.5 10.9 25.1 32.4 26 53.9zm994.5-12.5c4.3 7.2 8.8 18.4 0 23.3-40.3 17.9-94.9 9.8-141.4 15.2-12.5 10.7-22.4 28.6-17.9 44.8 4.5 2.7 8.5 6.8 13.4 6.3 28.6 1.8 71.6-13.4 90.4 13.4 4.6 8-.6 37.8-13.4 38.5-34.9 4.5-92.4-4.4-109.2 4.5-21.5 14.3-19.7 42.1-27.8 64.5 15.2 9.8 31.2-.2 49.2-2.7 33.2-5.4 69.9-15.2 103-8.1 6.3 11.6 15.2 24.2 8.9 38.5-56.4 44.8-129.2 90.6-206.8 58.2-29.1-13-42.1-57.3-32.2-94.9 6.3-26.9 34-52.8 17-81.5-2.7-12.5 4.5-23.3 15.2-26 29.5 0 23.3-36.7 38.5-53.7-17-18.8-60-17.9-55.5-55.5 20.6-10.7 45.7-7.2 68.9-10.7 52.8-10.8 111.9-17 165.6-10.8 10.8 2.1 25.1 23.2 34.1 36.7zM812.5 213.1c82.6 67.5 189.8 182.6 176.3 315.1-16.1 104.7-127.1 183.5-221.1 208.6-91.3 26.8-205.9 24.2-299 2.7-6.3 17-12.5 37.6-32.2 44.8-12.5 4.5-28.7 1.8-38.5-6.3-27.7-26-5.4-76.1-45.7-92.2-78.8-33.1-163.8-98.5-204.1-179-5.4-16.1.9-32.2 10.7-44.7 61.8-49.2 139.6-68.9 217.5-84.1 4.5 1.8 2.7-4.5 6.3-6.3C387.2 318 389 263.4 406 215c3.9-6.8 13.4-8.9 19.7-4.5 49.2 37.6 26 108.3 47.4 159.3 94 4.5 188 8.9 262.3 61.8 25.1 20.6 31.2 59.9 23.3 82.4-7.9 22.4-34 38.5-58.2 40.3-16.1 0-46.5 1.6-44.8-10.7 1.8-12.3 54.8-32.5 38.5-49.2-23.4-24.1-140.4-38.5-212.9-47.4-8.9-1.8-17.2.9-17.2 10.7-1.8 68-7.2 143.2 4.5 208.6.9 4.5 6.3 9.9 10.8 10.7 128 20.6 263.2 8.9 363.4-64.4 46.5-37.6 61.8-90.4 53.7-148.6C856.2 302 687 204.4 548.3 141.7 413.1 82.6 263.6 52.2 103.4 60.2c-25.5 1.9-65.9 10.7-66.2 19.7s45.8 6.2 40.3 23.3-52.4 6.9-66.2 2.7c-13.9-4.3-12.5-24.2-8.9-36.7C37.3 7.4 134.7 2.4 178.7.3c243.5-6.5 478.9 86.2 633.8 212.8zM373.9 453c-61.8.9-127.1 7.2-184.4 28.6-11.6 4.5-26 17-17 32.2 23.3 31.3 56.5 57 87.7 75.2 31.2 18.1 72.5 41.2 110.1 46.6 8.9-58.2 8.9-115.5 8.1-175.5-3.7-1.8-.1-5.3-4.5-7.1zm1850.2-81.5c-2.7 77.9-75.2 126.2-75.2 204.1 2.7 2.7 4.5 6.3 8.1 4.5 58.2-63.6 115.5-154 200.5-180.8 22.4-1.8 42.7 17.7 51 32.2 29.5 59.1 22.4 142.3-18.8 196-42.5 52.7-116.4 105.6-200.5 96.7-34.9 85.9-59.1 176.3-72.5 270.3-7.2 18.8-24.1 1.8-34.9-1.8-72.5-57.3-13-208.9-8.1-228.3 4.9-19.3 24.3-64.8 38.5-102.9-34-60.9-12.5-134.3 15.2-190.7 21.5-37.6 51-75.2 86-103.8 4.5 0 8 .9 10.7 4.5zm144.2 96.7c-10.7-1.8-15.2 12.5-24.2 15.2-41.2 46.5-82.4 93.1-103 148.6 27.8 3.6 51-14.3 75.2-24.2 41.2-26 67.1-68.9 64.4-118.2-1.7-8-8.8-14.3-12.4-21.4z"
        fill="#fff" />
</svg>