<svg xmlns="http://www.w3.org/2000/svg" viewBox="0 0 2468.1 1339.2"><path d="M1744.3 867.1c-34.2 7.8-124.1 12.3-124.1 12.3l-11.4 35.6s44.8-3.8 77.6-.5c0 0 10.7-1.2 11.9 12.1.2 8.6-.1 17.1-.9 25.6 0 0-.7 8.1-12.1 10-12.3 2.1-96.8 5.2-96.8 5.2l-13.8 46.3s-5 10.7 6.4 7.6c10.7-2.8 99.2-19.5 110.8-17.1 12.3 3.1 26.1 19.5 22.1 34.6-4.7 18.5-93 75-146.8 70.9 0 0-28.2 1.9-52.2-36.3-22.3-36.3 8.5-105.3 8.5-105.3s-14-32.3-3.8-42.9c0 0 6.2-5.5 23.7-6.9l21.6-44.8s-24.7 1.7-39.4-16.4c-13.8-17.3-14.7-25.1-4.3-29.9 11.1-5.5 113.9-24.2 184.6-21.8 0 0 24.7-2.4 45.8 40.3-.2 0 10.2 17.3-7.4 21.4zm-265.9 172.2c-9 21.3-33 44.1-62.6 29.9-29.7-14.2-76.1-109.8-76.1-109.8s-17.8-35.6-21.1-34.9c0 0-3.8-6.9-6.2 32-2.4 38.9.5 114.6-14.9 126.4-14.7 11.9-32.5 7.1-41.8-6.9-8.3-13.8-11.9-46.5-7.4-103.9 5.5-57.4 18.7-118.6 35.8-137.8 17.1-19.2 30.8-5.2 36.1-.2 0 0 22.8 20.6 60.5 81.4l6.6 11.1s34.2 57.4 37.7 57.2c0 0 2.8 2.6 5.2.7 3.6-.9 2.1-19.5 2.1-19.5s-7.1-62.4-38.2-168.2c0 0-4.7-13.3-1.4-25.6 3.3-12.3 15.7-6.6 15.7-6.6s48.4 24.2 71.6 103c23.1 79.4 7.4 150.3-1.6 171.7zm-237.7-202.4c-4 8.1-6.4 19.7-26.8 22.8 0 0-195.2 13.3-204.5 27 0 0-6.9 8.1 3.8 10.4 10.7 2.4 54.8 8.1 76.1 9.3 22.8.2 99.6.9 127.1 35.3 0 0 16.4 16.4 15.7 53.4-.7 38-7.4 51.2-22.1 65-15.4 12.8-147.8 72.1-233.2-19 0 0-39.4-43.9 13.5-77.1 0 0 38.2-23 135.2 4 0 0 29.4 10.7 28 21.3-1.7 11.4-24.2 23.5-56.9 22.8-31.8-.9-55-16.1-50.5-13.8 4.3 1.7-34.2-18.5-46-4.7-11.9 12.6-9 20.4 2.6 28.2 29.7 16.8 144.2 10.9 178.4-27 0 0 13.5-15.4-7.1-28-20.6-11.9-79.7-19-102.7-20.2-22.1-1.2-104.1.2-116-21.6 0 0-11.9-14.7 1.2-56.5 13.8-43.6 109.4-60.5 150.6-64.3 0 0 113.6-4 134.5 19.2 1.5 4.6 1.1 9.4-.9 13.5zm-322.6 256c-13.8 10.2-42.9 5.7-51.2-5.7-8.3-10.2-11.1-50.8-9.5-114.3 1.7-64.3 3.1-144 16.8-156.6 14.7-12.8 23.7-1.7 29.4 7.1 6.2 8.5 13.5 18 15.2 38.2s6.2 126 6.2 126 6.2 95.3-6.9 105.3zm29.7-341.1c-40.1 13.3-67.6 8.8-90.9-1.2-10.2 17.8-16.1 23.2-24 24.4-11.4 1.2-21.6-17.1-23.5-23-1.9-4.5-7.4-12.1-.7-30.1-22.8-20.4-24.4-47.9-20.6-66.4 5.7-21.3 44.1-102.5 161.1-112 0 0 57.2-4.3 66.9 26.3h1.7s55.5.2 54.3 49.6c-.7 49.6-61.7 111.3-124.3 132.4zM838.6 641.9c-11.9 19-12.3 30.4-6.9 38.2 13.5-20.6 38.2-53.1 74.5-77.8-27.9 2.4-51.4 14.5-67.6 39.6zm161.6-31.7c-36.8 5.5-93.7 54.8-120.7 95.1 41.5 7.6 114.8 4.7 147.3-61.4-.3-.1 15.4-41.1-26.6-33.7zm998.2 382.1c-22.1 38.4-84 118.6-166.5 99.9-27.3 66.2-50.1 132.8-63.1 232.9 0 0-2.8 19.5-19 12.6-15.9-5.7-42.5-32.3-47.7-69-5.7-48.4 15.9-130.2 59.8-223.9-12.8-20.9-21.6-50.8-14-93.2 0 0 11.1-78.8 90.1-149.9 0 0 9.5-8.3 14.9-5.7 6.2 2.6 3.3 28.2-1.7 40.6-5 12.3-40.3 73.5-40.3 73.5s-22.1 41.3-15.9 73.8c41.5-63.8 135.9-192.6 194.5-152.1 19.7 14 28.7 44.6 28.7 77.6-.1 29.1-7 59.9-19.8 82.9zm-17.1-101s-3.3-25.4-28 2.6c-21.3 23.5-59.8 67.8-90.9 127.9 32.5-3.6 63.8-21.3 73.3-30.4 15.5-13.8 51.3-50.8 45.6-100.1zM829.6 923.5c-4.5 57.4-26.6 154-182.9 201.6-103.2 31.1-200.7 16.1-253.8 2.6-1.2 21.1-3.6 30.1-6.9 33.7-4.5 4.5-38.2 24-56.7-3.6-8.3-13-12.6-36.8-14.9-57.9-119.6-55-174.6-134.3-176.7-137.8-2.6-2.6-29.9-31.1-2.6-65.9 25.6-31.5 109.4-63.1 184.8-75.9 2.6-64.5 10.2-113.2 19.2-135.5 10.9-25.9 24.7-2.6 36.5 14.9 10 13 15.9 69.3 16.4 114.1 49.3-2.4 78.5 1.2 133.6 11.1 71.6 13 119.6 49.6 115.3 91.1-3.1 40.8-40.6 57.6-54.8 58.8-14.9 1.2-38.2-9.5-38.2-9.5-15.9-7.6-1.2-14.2 18-22.5 20.9-10.2 16.1-20.6 16.1-20.6-7.8-22.8-100.8-38.7-193.3-38.7-.5 51 2.1 135.7 3.3 185 64.8 12.3 113.2 10 113.2 10s236.3-6.6 243.4-157.5c7.1-150.9-235.6-296-415.1-342.1-179.3-47-280.9-14.2-289.6-9.7-9.5 4.7-.7 6.2-.7 6.2 9 1.6 17.9 4 26.6 7.1 17.8 5.7 4 14.9 4 14.9-30.6 9.7-65 3.6-71.6-10.4-6.6-14 4.5-26.6 17.3-44.6 12.8-19 26.8-18.3 26.8-18.3 221.8-76.9 492 62.2 492 62.2 252.9 128.5 296.1 278.9 291.3 337.2zm-669.4-7.8c-25.1 12.3-7.8 30.1-7.8 30.1 47.2 50.8 105.3 82.6 160.6 102.2 6.4-87.5 5.5-118.4 6.2-162.5-86.4 6-136.2 19.8-159 30.2zm2307.9-18V929c.1 6.8-5.4 12.3-12.1 12.3H2306.6c0 7.8.2 14.7.2 21.1.2 42.2-1.9 84.4-6.4 126.4-.6 6.3-5.8 11.1-12.1 11.1H2256c-3.3 0-6.4-1.4-8.5-3.8-2.2-2.4-3.3-5.7-2.8-9 4.5-41.4 6.8-83.1 6.6-124.8 0-6.6 0-13.5-.2-21.1h-147.5c-6.8.1-12.3-5.4-12.3-12.1v-31.5c-.1-6.8 5.4-12.3 12.1-12.3H2249c-2.9-50.4-9.4-100.5-19.2-149.9-.5-3 .3-6.1 2.1-8.5 1.9-2.4 4.8-3.8 7.8-3.8h34.9c5.4 0 10.1 3.9 11.1 9.3 9.6 50.5 15.9 101.6 19 153h151.1c6.7 0 12.2 5.5 12.3 12.3z" fill="#fff"/><path d="M473.8 484.2h-.2m-1.7.2c-.7 0-1.4-.2-2.1-.2.7.2 1.4.3 2.1.2zm0 0c-.7 0-1.4-.2-2.1-.2.7.2 1.4.3 2.1.2z" fill="none"/><radialGradient id="prefix__a" cx="1256.217" cy="719.042" r="760.12" gradientTransform="translate(-745.243 -1042.15) scale(2.3722)" gradientUnits="userSpaceOnUse"><stop offset=".01" stop-color="#fff"/><stop offset=".03" stop-color="#cbffff"/><stop offset=".06" stop-color="#96ffff"/><stop offset=".08" stop-color="#68ffff"/><stop offset=".11" stop-color="#43ffff"/><stop offset=".14" stop-color="#25ffff"/><stop offset=".16" stop-color="#1ff"/><stop offset=".19" stop-color="#04ffff"/><stop offset=".22" stop-color="#0ff"/><stop offset="1" stop-color="#00f" stop-opacity="0"/></radialGradient><path d="M2265 649.3C2048.4 116.6 1441-139.6 908.3 77 715 155.6 549.7 290.5 434 464.3c-2.1 3.1-2.6 7.1-1.4 10.7 1.1 3.6 4 6.5 7.6 7.6l27 9.3c1.5.5 3.1.7 4.7.7 5-.1 9.7-2.5 12.6-6.6C668 215.5 973.5 53.6 1300.3 53.7c396.4.1 754.3 237.3 908.8 602.3 2.2 5.3 7.3 8.7 13 8.8h32.3c3.7 0 7.2-1.8 9.3-5 2.2-3 2.8-7 1.3-10.5zM471.9 484.4c-.7 0-1.5-.2-2.1-.5.7.3 1.4.5 2.1.5zm1743.5 176.1c.7.5 1.4.9 2.1 1.2-.6-.5-1.3-.8-2.1-1.2z" fill="url(#prefix__a)"/></svg>